<?xml version="1.0" encoding="utf-8"?>
<!-- Generator: Adobe Illustrator 19.1.0, SVG Export Plug-In . SVG Version: 6.00 Build 0)  -->
<svg version="1.1" id="Laag_1" xmlns="http://www.w3.org/2000/svg" xmlns:xlink="http://www.w3.org/1999/xlink" x="0px" y="0px"
	 viewBox="0 0 466.5 516" style="enable-background:new 0 0 466.5 516;" xml:space="preserve">
<style type="text/css">
	.st0{fill:#F29100;}
	.st1{fill:#724700;}
	.st2{fill:#B16E00;}
</style>
<g>
	<path class="st0" d="M444,242.4c0,0.1,0,0.1-0.1,0.2c-0.8,1.6-1.6,3.1-2.5,4.6c0,0,0,0,0,0.1c-1.3,2.1-2.6,4.2-4,6.3L251.2,499.7
		c-0.2,0.3-0.4,0.6-0.7,0.9l-1.1,1.5c-1.3,1.8-2.1,2.7-2.1,2.7V320.2l64.4-84.9l27-35.6h-91.4V87h102.3
		C435,87,478.7,175.7,444,242.4z"/>
	<path class="st1" d="M444,242.4c0,0.1,0,0.1-0.1,0.2c-0.7,1.7-1.5,3.3-2.5,4.6c0,0,0,0,0,0.1c-9.5,12.5-163.6,217.2-190.1,252.4
		c-0.2,0.3-0.4,0.6-0.7,0.9c-0.4,0.5-0.8,1-1.1,1.5c-1.3,1.8-2.1,2.7-2.1,2.7V319.6l64.3-84.3l27.1-35.6c0,0,25.7,0,66.1,0
		C442.8,199.7,449.9,227.3,444,242.4z"/>
	<path class="st2" d="M414.2,282.8c-7.4,9.9-115.2,153-166.8,221.5V319.6l64.3-84.3h66.1C420.2,235.3,424,269.8,414.2,282.8z"/>
	<path class="st0" d="M22.6,275.5c0-0.1,0-0.1,0-0.1c0.8-1.6,1.7-3.2,2.6-4.7c0,0,0,0,0-0.1c1.3-2.1,2.6-4.2,4-6.3L215.4,18.2
		c0.2-0.3,0.4-0.6,0.7-0.9l1.1-1.5c1.3-1.8,2.1-2.7,2.1-2.7v184.6l-64.4,84.9l-27,35.6h91.4v112.7H116.9
		C31.6,430.9-12.1,342.2,22.6,275.5z"/>
	<path class="st1" d="M22.6,275.5c0-0.1,0-0.1,0-0.1c0.7-1.8,1.6-3.3,2.6-4.7c0,0,0,0,0-0.1c9.5-12.5,163.6-217.2,190.1-252.4
		c0.2-0.3,0.4-0.6,0.7-0.9c0.4-0.5,0.8-1,1.1-1.5c1.3-1.8,2.1-2.7,2.1-2.7v185.2L155,282.6l-27.1,35.6c0,0-25.7,0-66.1,0
		C23.8,318.2,16.7,290.7,22.6,275.5z"/>
	<path class="st2" d="M52.4,235.1c7.4-9.9,115.2-153,166.8-221.5v184.8L155,282.6H88.9C46.4,282.6,42.6,248.1,52.4,235.1z"/>
</g>
</svg>
